<svg xmlns="http://www.w3.org/2000/svg" width="200" height="200" viewBox="0 0 200 200"><style>.a{fill:#29ABE2;}.b{fill:#B3B3B3;}</style><rect x="55" y="16" width="60" height="20" class="a"/><rect x="125" y="16" width="60" height="20" class="a"/><rect x="55" y="46" width="60" height="20" class="b"/><rect x="125" y="46" width="60" height="20" class="b"/><rect x="55" y="76" width="60" height="20" class="b"/><rect x="125" y="76" width="60" height="20" class="b"/><rect x="55" y="106" width="60" height="20" class="b"/><rect x="125" y="106" width="60" height="20" class="b"/><rect x="55" y="136" width="60" height="20" class="b"/><rect x="25" y="16" width="20" height="20" class="a"/><rect x="25" y="46" width="20" height="20" class="b"/><rect x="25" y="76" width="20" height="20" class="b"/><rect x="25" y="106" width="20" height="20" class="b"/><rect x="25" y="136" width="20" height="20" class="b"/><rect x="125" y="136" width="60" height="20" class="b"/><rect x="55" y="166" width="60" height="20" class="b"/><rect x="25" y="166" width="20" height="20" class="b"/><rect x="125" y="166" width="60" height="20" class="b"/><rect x="21" y="98" width="80" height="80" fill="#4D4D4D"/><rect x="11" y="88" width="80" height="80" class="a"/><path d="M50.9 151.6c-3.1 0-6.1-0.6-9.2-1.7 -3-1.1-5.8-2.8-8.2-5.1l6-7.3c1.7 1.4 3.5 2.6 5.6 3.5 2 0.9 4 1.4 6 1.4 2.2 0 3.9-0.4 4.9-1.2 1.1-0.8 1.6-1.9 1.6-3.3 0-0.7-0.2-1.3-0.5-1.9 -0.3-0.5-0.8-1-1.4-1.4 -0.6-0.4-1.3-0.8-2.2-1.2 -0.8-0.4-1.8-0.8-2.8-1.2l-6.1-2.6c-1.2-0.5-2.4-1.1-3.5-1.9 -1.1-0.8-2.1-1.7-3-2.7 -0.9-1-1.6-2.2-2.1-3.6 -0.5-1.4-0.8-2.9-0.8-4.6 0-1.9 0.4-3.7 1.2-5.4 0.8-1.7 2-3.2 3.5-4.5 1.5-1.3 3.3-2.3 5.3-3 2-0.7 4.3-1.1 6.7-1.1 2.7 0 5.4 0.5 8.1 1.6 2.7 1.1 5 2.6 7 4.6l-5.4 6.7c-1.5-1.2-3.1-2.1-4.6-2.8 -1.5-0.6-3.2-1-5.1-1 -1.8 0-3.3 0.4-4.4 1.1 -1.1 0.7-1.6 1.8-1.6 3.1 0 0.7 0.2 1.3 0.5 1.8 0.4 0.5 0.9 1 1.5 1.4 0.6 0.4 1.4 0.8 2.3 1.2 0.9 0.4 1.8 0.8 2.8 1.2l6 2.4c2.9 1.2 5.1 2.7 6.8 4.8 1.7 2 2.5 4.7 2.5 8 0 2-0.4 3.8-1.2 5.6s-1.9 3.3-3.5 4.6c-1.5 1.3-3.4 2.4-5.6 3.2C56.1 151.2 53.6 151.6 50.9 151.6z" fill="#FFF"/></svg>